<svg width="46" height="46" viewBox="0 0 46 46" fill="none" xmlns="http://www.w3.org/2000/svg">
<path d="M38.5249 14.8343C38.7741 14.0293 38.5249 13.416 37.3366 13.416H33.4649C32.4683 13.416 32.0274 13.9335 31.7783 14.5085C31.7783 14.5085 29.8041 19.3193 27.0058 22.4627C26.0858 23.3635 25.6833 23.651 25.1849 23.651C24.9358 23.651 24.5333 23.3635 24.5333 22.5393V14.8343C24.5333 13.8568 24.3033 13.416 23.4791 13.416H17.3649C16.7516 13.416 16.3874 13.876 16.3874 14.3168C16.3874 15.2368 17.8249 15.4668 17.9208 18.0927V23.8043C17.9208 25.0693 17.6908 25.2993 17.2116 25.2993C15.9083 25.2993 12.6883 20.4502 10.7908 14.9302C10.4074 13.8568 10.0433 13.416 9.04659 13.416H5.15575C4.06325 13.416 3.83325 13.9335 3.83325 14.5085C3.83325 15.5435 5.15575 20.6418 9.96659 27.3885C13.1674 32.0077 17.6908 34.4993 21.8116 34.4993C24.2841 34.4993 24.5908 33.9435 24.5908 32.9852V29.4969C24.5908 28.4044 24.8208 28.1743 25.6066 28.1743C26.1816 28.1743 27.1591 28.4618 29.4591 30.666C32.1041 33.311 32.5258 34.4993 34.0208 34.4993H37.8924C39.0041 34.4993 39.5599 33.9435 39.2533 32.851C38.9083 31.7585 37.6432 30.1677 35.9757 28.2893C35.0749 27.2352 33.7141 26.0852 33.2924 25.491C32.7174 24.7627 32.8899 24.4368 33.2924 23.766C33.2924 23.766 38.0266 17.1152 38.5249 14.8343Z" fill="#FCFCFC"/>
</svg>
